<?xml version="1.0" encoding="utf-8"?>
<!-- Generator: Adobe Illustrator 15.0.0, SVG Export Plug-In . SVG Version: 6.00 Build 0)  -->
<!DOCTYPE svg PUBLIC "-//W3C//DTD SVG 1.1//EN" "http://www.w3.org/Graphics/SVG/1.1/DTD/svg11.dtd">
<svg version="1.1" id="レイヤー_1" xmlns="http://www.w3.org/2000/svg" xmlns:xlink="http://www.w3.org/1999/xlink" x="0px"
	 y="0px" width="303.289px" height="62.413px" viewBox="0 0 303.289 62.413" enable-background="new 0 0 303.289 62.413"
	 xml:space="preserve">
<g>
	<g>
		<defs>
			<polygon id="SVGID_1_" points="5.338,45.591 31.748,62.413 31.593,16.508 3.137,3.616 			"/>
		</defs>
		<clipPath id="SVGID_2_">
			<use xlink:href="#SVGID_1_"  overflow="visible"/>
		</clipPath>
		
			<linearGradient id="SVGID_3_" gradientUnits="userSpaceOnUse" x1="4.882813e-004" y1="62.4126" x2="1.0005" y2="62.4126" gradientTransform="matrix(28.6116 0 0 -28.6116 3.1292 1818.7405)">
			<stop  offset="0" style="stop-color:#FDEAC0"/>
			<stop  offset="0.4673" style="stop-color:#F9BF20"/>
			<stop  offset="0.9505" style="stop-color:#F08D2F"/>
			<stop  offset="1" style="stop-color:#F08D2F"/>
		</linearGradient>
		<rect x="3.137" y="3.616" clip-path="url(#SVGID_2_)" fill="url(#SVGID_3_)" width="28.611" height="58.797"/>
	</g>
	<g>
		<defs>
			<polygon id="SVGID_4_" points="13.288,0 2.834,3.616 31.29,16.508 31.997,16.192 3.542,3.656 13.368,0.198 46.147,10.219 
				46.773,9.904 			"/>
		</defs>
		<clipPath id="SVGID_5_">
			<use xlink:href="#SVGID_4_"  overflow="visible"/>
		</clipPath>
		
			<linearGradient id="SVGID_6_" gradientUnits="userSpaceOnUse" x1="0" y1="62.4126" x2="1" y2="62.4126" gradientTransform="matrix(43.9392 0 0 -43.9392 2.8345 2750.6262)">
			<stop  offset="0" style="stop-color:#FDEAC0"/>
			<stop  offset="0.2473" style="stop-color:#F9BF20"/>
			<stop  offset="0.9505" style="stop-color:#F08D2F"/>
			<stop  offset="1" style="stop-color:#F08D2F"/>
		</linearGradient>
		<rect x="2.834" y="0" clip-path="url(#SVGID_5_)" fill="url(#SVGID_6_)" width="43.939" height="16.508"/>
	</g>
	<g>
		<defs>
			<path id="SVGID_7_" d="M46.147,10.219c-0.08,3.459-4.56,44.648-4.56,44.648s0.47-0.157,0.47-0.079
				c0.159-0.313,4.716-44.884,4.716-44.884S46.225,10.219,46.147,10.219"/>
		</defs>
		<clipPath id="SVGID_8_">
			<use xlink:href="#SVGID_7_"  overflow="visible"/>
		</clipPath>
		
			<linearGradient id="SVGID_9_" gradientUnits="userSpaceOnUse" x1="-4.882813e-004" y1="62.4126" x2="0.9995" y2="62.4126" gradientTransform="matrix(5.1856 0 0 -5.1856 41.5881 356.0339)">
			<stop  offset="0" style="stop-color:#FDEAC0"/>
			<stop  offset="0.2473" style="stop-color:#F9BF20"/>
			<stop  offset="0.9505" style="stop-color:#F08D2F"/>
			<stop  offset="1" style="stop-color:#F08D2F"/>
		</linearGradient>
		<rect x="41.587" y="9.904" clip-path="url(#SVGID_8_)" fill="url(#SVGID_9_)" width="5.186" height="44.963"/>
	</g>
	<g>
		<defs>
			<path id="SVGID_10_" d="M13.288,0v1.023c0,0,30.343,9.746,30.656,10.532c-0.078,0.08-1.646,31.473-3.218,42.792
				c0.079,0,0.861,0.521,0.861,0.521s4.795-44.569,4.56-44.648C46.147,10.219,13.288,0.314,13.288,0z"/>
		</defs>
		<clipPath id="SVGID_11_">
			<use xlink:href="#SVGID_10_"  overflow="visible"/>
		</clipPath>
		
			<linearGradient id="SVGID_12_" gradientUnits="userSpaceOnUse" x1="4.882813e-004" y1="62.4126" x2="1.0005" y2="62.4126" gradientTransform="matrix(32.8662 0 0 -32.8662 13.2999 2078.6997)">
			<stop  offset="0" style="stop-color:#FDEAC0"/>
			<stop  offset="0.2473" style="stop-color:#F9BF20"/>
			<stop  offset="0.9505" style="stop-color:#F08D2F"/>
			<stop  offset="1" style="stop-color:#F08D2F"/>
		</linearGradient>
		<rect x="13.288" y="0" clip-path="url(#SVGID_11_)" fill="url(#SVGID_12_)" width="33.094" height="54.867"/>
	</g>
	<g>
		<defs>
			<polygon id="SVGID_13_" points="31.29,16.508 31.445,62.413 31.918,62.099 31.997,16.192 			"/>
		</defs>
		<clipPath id="SVGID_14_">
			<use xlink:href="#SVGID_13_"  overflow="visible"/>
		</clipPath>
		
			<linearGradient id="SVGID_15_" gradientUnits="userSpaceOnUse" x1="-4.882813e-004" y1="62.4126" x2="0.9995" y2="62.4126" gradientTransform="matrix(0.7061 0 0 -0.7061 31.2906 83.3701)">
			<stop  offset="0" style="stop-color:#FDEAC0"/>
			<stop  offset="0.2473" style="stop-color:#F9BF20"/>
			<stop  offset="0.9505" style="stop-color:#F08D2F"/>
			<stop  offset="1" style="stop-color:#F08D2F"/>
		</linearGradient>
		<rect x="31.29" y="16.192" clip-path="url(#SVGID_14_)" fill="url(#SVGID_15_)" width="0.707" height="46.22"/>
	</g>
	<g>
		<defs>
			<polygon id="SVGID_16_" points="3.542,3.656 4.983,4.296 13.288,1.022 13.263,0.208 			"/>
		</defs>
		<clipPath id="SVGID_17_">
			<use xlink:href="#SVGID_16_"  overflow="visible"/>
		</clipPath>
		
			<linearGradient id="SVGID_18_" gradientUnits="userSpaceOnUse" x1="0" y1="62.4126" x2="1" y2="62.4126" gradientTransform="matrix(9.7467 0 0 -9.7467 3.5395 610.5751)">
			<stop  offset="0" style="stop-color:#FDEAC0"/>
			<stop  offset="0.2473" style="stop-color:#F9BF20"/>
			<stop  offset="0.9505" style="stop-color:#F08D2F"/>
			<stop  offset="1" style="stop-color:#F08D2F"/>
		</linearGradient>
		<rect x="3.542" y="0.208" clip-path="url(#SVGID_17_)" fill="url(#SVGID_18_)" width="9.746" height="4.088"/>
	</g>
	<g>
		<defs>
			<path id="SVGID_19_" d="M31.971,18.551C31.971,18.552,31.971,18.552,31.971,18.551L31.971,18.551 M4.983,4.296l27.014,11.896
				c0,0-0.025,2.308-0.026,2.358c1.991-2.725,11.895-7.02,11.973-6.996C43.289,10.639,13.288,1.022,13.288,1.022L4.983,4.296z"/>
		</defs>
		<clipPath id="SVGID_20_">
			<use xlink:href="#SVGID_19_"  overflow="visible"/>
		</clipPath>
		
			<linearGradient id="SVGID_21_" gradientUnits="userSpaceOnUse" x1="0" y1="62.4019" x2="1" y2="62.4019" gradientTransform="matrix(33.328 13.9391 13.9391 -33.328 -859.803 2083.4663)">
			<stop  offset="0" style="stop-color:#FFFFFF"/>
			<stop  offset="0.4465" style="stop-color:#FBFBFB"/>
			<stop  offset="0.9032" style="stop-color:#EFEFEF"/>
			<stop  offset="1" style="stop-color:#EBEBEB"/>
		</linearGradient>
		<polygon clip-path="url(#SVGID_20_)" fill="url(#SVGID_21_)" points="10.784,-12.847 50.184,3.632 38.144,32.42 -1.257,15.942 		
			"/>
	</g>
	<g>
		<defs>
			<path id="SVGID_22_" d="M31.971,18.551l-0.053,42.84c0,0,4.799-6.103,8.808-7.045c0,0,2.316-22.926,3.218-42.792
				C43.944,11.555,35.011,15.169,31.971,18.551"/>
		</defs>
		<clipPath id="SVGID_23_">
			<use xlink:href="#SVGID_22_"  overflow="visible"/>
		</clipPath>
		
			<linearGradient id="SVGID_24_" gradientUnits="userSpaceOnUse" x1="0" y1="62.4224" x2="1" y2="62.4224" gradientTransform="matrix(-0.8384 41.7134 41.7134 0.8384 -2565.4712 -38.4386)">
			<stop  offset="0" style="stop-color:#D7D7D7"/>
			<stop  offset="0.7527" style="stop-color:#CDCDCD"/>
			<stop  offset="1" style="stop-color:#C8C8C8"/>
		</linearGradient>
		<polygon clip-path="url(#SVGID_23_)" fill="url(#SVGID_24_)" points="44.945,11.575 43.939,61.633 30.917,61.372 31.923,11.313 		
			"/>
	</g>
	<g>
		<g opacity="0.15">
			<g>
				<defs>
					<rect id="SVGID_25_" x="32.782" y="15.642" width="1.494" height="43.391"/>
				</defs>
				<clipPath id="SVGID_26_">
					<use xlink:href="#SVGID_25_"  overflow="visible"/>
				</clipPath>
				<polygon clip-path="url(#SVGID_26_)" points="32.782,15.642 33.96,16.665 33.96,59.032 34.198,58.719 34.276,16.507 				"/>
			</g>
		</g>
		<polygon fill="#DA091A" points="33.961,33.722 34.906,34.272 34.906,39.617 34.04,38.752 		"/>
		<polygon fill="#DA091A" points="35.455,38.36 36.398,38.91 36.398,44.255 35.534,43.391 		"/>
		<g opacity="0.15">
			<g>
				<defs>
					<rect id="SVGID_27_" x="34.983" y="14.856" width="1.179" height="42.762"/>
				</defs>
				<clipPath id="SVGID_28_">
					<use xlink:href="#SVGID_27_"  overflow="visible"/>
				</clipPath>
				<polygon clip-path="url(#SVGID_28_)" points="34.983,14.856 35.848,15.565 35.22,57.618 35.455,57.459 36.163,15.329 				"/>
			</g>
		</g>
		<g opacity="0.2">
			<g>
				<defs>
					<rect id="SVGID_29_" x="4.983" y="1.022" width="9.328" height="3.694"/>
				</defs>
				<clipPath id="SVGID_30_">
					<use xlink:href="#SVGID_29_"  overflow="visible"/>
				</clipPath>
				<polygon clip-path="url(#SVGID_30_)" points="4.983,4.297 6.136,4.716 14.31,1.336 13.288,1.022 				"/>
			</g>
		</g>
	</g>
	<g>
		<defs>
			<path id="SVGID_31_" d="M0.465,28.837c0,5.972,4.841,10.813,10.812,10.813c5.972,0,10.813-4.841,10.813-10.813
				s-4.841-10.812-10.813-10.812C5.306,18.025,0.465,22.866,0.465,28.837"/>
		</defs>
		<clipPath id="SVGID_32_">
			<use xlink:href="#SVGID_31_"  overflow="visible"/>
		</clipPath>
		
			<linearGradient id="SVGID_33_" gradientUnits="userSpaceOnUse" x1="0" y1="62.4126" x2="1" y2="62.4126" gradientTransform="matrix(-4.6788 -4.4595 -4.4595 4.6788 289.65 -263.1371)">
			<stop  offset="0" style="stop-color:#F6F9FA"/>
			<stop  offset="0.5" style="stop-color:#DDE7E9"/>
			<stop  offset="1" style="stop-color:#CBDBDD"/>
		</linearGradient>
		<polygon clip-path="url(#SVGID_32_)" fill="url(#SVGID_33_)" points="11.796,50.45 -10.334,29.356 10.759,7.226 32.89,28.319 		
			"/>
	</g>
	<g>
		<defs>
			<path id="SVGID_34_" d="M9.959,43.112v0.759c0.01-0.001,0.02-0.002,0.02-0.002h3.004v-1.016
				C12.044,42.927,11.029,43.013,9.959,43.112"/>
		</defs>
		<clipPath id="SVGID_35_">
			<use xlink:href="#SVGID_34_"  overflow="visible"/>
		</clipPath>
		
			<linearGradient id="SVGID_36_" gradientUnits="userSpaceOnUse" x1="0" y1="62.4126" x2="1" y2="62.4126" gradientTransform="matrix(31.4298 30.4702 30.4702 -31.4298 -1913.2057 1982.7098)">
			<stop  offset="0" style="stop-color:#CCDA00"/>
			<stop  offset="1" style="stop-color:#889A0D"/>
		</linearGradient>
		<polygon clip-path="url(#SVGID_35_)" fill="url(#SVGID_36_)" points="11.424,41.341 13.492,43.346 11.518,45.382 9.45,43.377 		
			"/>
	</g>
	<g>
		<defs>
			<path id="SVGID_37_" d="M9.959,43.112c1.07-0.099,2.085-0.185,3.024-0.259V41.84H9.989c0,0-0.02-0.001-0.03-0.003V43.112z"/>
		</defs>
		<clipPath id="SVGID_38_">
			<use xlink:href="#SVGID_37_"  overflow="visible"/>
		</clipPath>
		
			<linearGradient id="SVGID_39_" gradientUnits="userSpaceOnUse" x1="0" y1="62.4126" x2="1" y2="62.4126" gradientTransform="matrix(31.4325 30.4728 30.4728 -31.4325 -1912.9569 1982.4178)">
			<stop  offset="0" style="stop-color:#CCDA00"/>
			<stop  offset="1" style="stop-color:#889A0D"/>
		</linearGradient>
		<polygon clip-path="url(#SVGID_38_)" fill="url(#SVGID_39_)" points="11.424,40.327 13.62,42.455 11.518,44.623 9.322,42.495 		
			"/>
	</g>
	<g>
		<defs>
			<path id="SVGID_40_" d="M9.959,43.112c1.07-0.099,2.085-0.185,3.024-0.259V41.84H9.989c0,0-0.02-0.001-0.03-0.003V43.112z"/>
		</defs>
		<clipPath id="SVGID_41_">
			<use xlink:href="#SVGID_40_"  overflow="visible"/>
		</clipPath>
		
			<linearGradient id="SVGID_42_" gradientUnits="userSpaceOnUse" x1="0" y1="62.4126" x2="1" y2="62.4126" gradientTransform="matrix(-16.556 -21.3548 -21.3548 16.556 1346.2938 -988.2214)">
			<stop  offset="0" style="stop-color:#B8C500"/>
			<stop  offset="1" style="stop-color:#D7E050"/>
		</linearGradient>
		<polygon clip-path="url(#SVGID_41_)" fill="url(#SVGID_42_)" points="11.094,44.576 9.342,42.316 11.848,40.374 13.6,42.633 		"/>
	</g>
	<g>
		<defs>
			<path id="SVGID_43_" d="M9.959,43.112v0.759c0.01-0.001,0.02-0.002,0.02-0.002h3.004V41.84H9.989c0,0-0.02-0.001-0.03-0.003
				V43.112z"/>
		</defs>
		<clipPath id="SVGID_44_">
			<use xlink:href="#SVGID_43_"  overflow="visible"/>
		</clipPath>
		
			<linearGradient id="SVGID_45_" gradientUnits="userSpaceOnUse" x1="0" y1="62.4126" x2="1" y2="62.4126" gradientTransform="matrix(4.8763 0 0 -4.8763 9.2374 347.2)">
			<stop  offset="0" style="stop-color:#F0EEEB"/>
			<stop  offset="0" style="stop-color:#E9E6E3"/>
			<stop  offset="0.0634" style="stop-color:#DBD7D6"/>
			<stop  offset="0.1841" style="stop-color:#B5B1B3"/>
			<stop  offset="0.264" style="stop-color:#999499"/>
			<stop  offset="0.5225" style="stop-color:#F8F8F8"/>
			<stop  offset="0.5882" style="stop-color:#EAE9E9"/>
			<stop  offset="0.7147" style="stop-color:#C5C2C3"/>
			<stop  offset="0.8764" style="stop-color:#8D878A"/>
			<stop  offset="1" style="stop-color:#DBDCDC"/>
			<stop  offset="1" style="stop-color:#B4B4B5"/>
		</linearGradient>
		<rect x="9.959" y="41.837" clip-path="url(#SVGID_44_)" fill="url(#SVGID_45_)" width="3.024" height="2.033"/>
	</g>
	<g>
		<defs>
			<path id="SVGID_46_" d="M12.416,40.101c-0.307,0.023-0.616,0.037-0.929,0.037c-0.312,0-0.62-0.014-0.923-0.037H9.989
				c0,0-0.02,0.001-0.03,0.002c-0.161,0.021-0.286,0.207-0.286,0.433s0.125,0.412,0.286,0.433c0.01,0.001,0.02,0.001,0.02,0.001
				h3.004c0.175,0,0.315-0.193,0.316-0.434c-0.001-0.24-0.141-0.435-0.316-0.435H12.416z"/>
		</defs>
		<clipPath id="SVGID_47_">
			<use xlink:href="#SVGID_46_"  overflow="visible"/>
		</clipPath>
		
			<linearGradient id="SVGID_48_" gradientUnits="userSpaceOnUse" x1="0" y1="62.4126" x2="1" y2="62.4126" gradientTransform="matrix(31.4286 30.469 30.469 -31.4286 -1911.7249 1981.1724)">
			<stop  offset="0" style="stop-color:#CCDA00"/>
			<stop  offset="1" style="stop-color:#889A0D"/>
		</linearGradient>
		<polygon clip-path="url(#SVGID_47_)" fill="url(#SVGID_48_)" points="11.43,38.289 13.733,40.522 11.542,42.782 9.239,40.548 		
			"/>
	</g>
	<g>
		<defs>
			<path id="SVGID_49_" d="M12.416,40.101c-0.307,0.023-0.616,0.037-0.929,0.037c-0.312,0-0.62-0.014-0.923-0.037H9.989
				c0,0-0.02,0.001-0.03,0.002c-0.161,0.021-0.286,0.207-0.286,0.433s0.125,0.412,0.286,0.433c0.01,0.001,0.02,0.001,0.02,0.001
				h3.004c0.175,0,0.315-0.193,0.316-0.434c-0.001-0.24-0.141-0.435-0.316-0.435H12.416z"/>
		</defs>
		<clipPath id="SVGID_50_">
			<use xlink:href="#SVGID_49_"  overflow="visible"/>
		</clipPath>
		
			<linearGradient id="SVGID_51_" gradientUnits="userSpaceOnUse" x1="0" y1="62.4126" x2="1" y2="62.4126" gradientTransform="matrix(-16.5539 -21.3522 -21.3522 16.5539 1347.0729 -988.8263)">
			<stop  offset="0" style="stop-color:#B8C500"/>
			<stop  offset="1" style="stop-color:#D7E050"/>
		</linearGradient>
		<polygon clip-path="url(#SVGID_50_)" fill="url(#SVGID_51_)" points="11.034,42.725 9.252,40.427 11.938,38.345 13.72,40.643 		
			"/>
	</g>
	<g>
		<defs>
			<path id="SVGID_52_" d="M12.416,40.101c-0.307,0.023-0.616,0.037-0.929,0.037c-0.312,0-0.62-0.014-0.923-0.037H9.989
				c0,0-0.02,0.001-0.03,0.002c-0.161,0.021-0.286,0.207-0.286,0.433s0.125,0.412,0.286,0.433c0.01,0.001,0.02,0.001,0.02,0.001
				h3.004c0.175,0,0.315-0.193,0.316-0.434c-0.001-0.24-0.141-0.435-0.316-0.435H12.416z"/>
		</defs>
		<clipPath id="SVGID_53_">
			<use xlink:href="#SVGID_52_"  overflow="visible"/>
		</clipPath>
		
			<linearGradient id="SVGID_54_" gradientUnits="userSpaceOnUse" x1="0" y1="62.4126" x2="1" y2="62.4126" gradientTransform="matrix(2.7597 -0.0268 -0.0268 -2.7597 10.575 212.8023)">
			<stop  offset="0" style="stop-color:#F0EEEB"/>
			<stop  offset="0" style="stop-color:#E9E6E3"/>
			<stop  offset="0.0634" style="stop-color:#DBD7D6"/>
			<stop  offset="0.1841" style="stop-color:#B5B1B3"/>
			<stop  offset="0.264" style="stop-color:#999499"/>
			<stop  offset="0.5225" style="stop-color:#F8F8F8"/>
			<stop  offset="0.5882" style="stop-color:#EAE9E9"/>
			<stop  offset="0.7147" style="stop-color:#C5C2C3"/>
			<stop  offset="0.8764" style="stop-color:#8D878A"/>
			<stop  offset="1" style="stop-color:#DBDCDC"/>
			<stop  offset="1" style="stop-color:#B4B4B5"/>
		</linearGradient>
		<polygon clip-path="url(#SVGID_53_)" fill="url(#SVGID_54_)" points="9.665,40.101 13.299,40.065 13.308,40.969 9.673,41.004 		
			"/>
	</g>
	<g>
		<defs>
			<path id="SVGID_55_" d="M9.989,40.969c0,0-0.02,0.001-0.03,0.003c-0.161,0.021-0.286,0.206-0.286,0.433s0.125,0.412,0.286,0.433
				c0.01,0.002,0.02,0.003,0.02,0.003h3.004c0.175,0,0.316-0.195,0.315-0.436c0.001-0.239-0.14-0.436-0.315-0.436H9.989z"/>
		</defs>
		<clipPath id="SVGID_56_">
			<use xlink:href="#SVGID_55_"  overflow="visible"/>
		</clipPath>
		
			<linearGradient id="SVGID_57_" gradientUnits="userSpaceOnUse" x1="0" y1="62.4126" x2="1" y2="62.4126" gradientTransform="matrix(31.4295 30.4698 30.4698 -31.4295 -1912.2069 1981.6724)">
			<stop  offset="0" style="stop-color:#CCDA00"/>
			<stop  offset="1" style="stop-color:#889A0D"/>
		</linearGradient>
		<polygon clip-path="url(#SVGID_56_)" fill="url(#SVGID_57_)" points="11.43,39.158 13.734,41.391 11.542,43.653 9.238,41.418 		
			"/>
	</g>
	<g>
		<defs>
			<path id="SVGID_58_" d="M9.989,40.969c0,0-0.02,0.001-0.03,0.003c-0.161,0.021-0.286,0.206-0.286,0.433s0.125,0.412,0.286,0.433
				c0.01,0.002,0.02,0.003,0.02,0.003h3.004c0.175,0,0.316-0.195,0.315-0.436c0.001-0.239-0.14-0.436-0.315-0.436H9.989z"/>
		</defs>
		<clipPath id="SVGID_59_">
			<use xlink:href="#SVGID_58_"  overflow="visible"/>
		</clipPath>
		
			<linearGradient id="SVGID_60_" gradientUnits="userSpaceOnUse" x1="0" y1="62.4126" x2="1" y2="62.4126" gradientTransform="matrix(-16.5545 -21.3529 -21.3529 16.5545 1346.7148 -988.5366)">
			<stop  offset="0" style="stop-color:#B8C500"/>
			<stop  offset="1" style="stop-color:#D7E050"/>
		</linearGradient>
		<polygon clip-path="url(#SVGID_59_)" fill="url(#SVGID_60_)" points="11.034,43.596 9.251,41.296 11.938,39.213 13.721,41.513 		
			"/>
	</g>
	<g>
		<defs>
			<path id="SVGID_61_" d="M9.989,40.969c0,0-0.02,0.001-0.03,0.003c-0.161,0.021-0.286,0.206-0.286,0.433s0.125,0.412,0.286,0.433
				c0.01,0.002,0.02,0.003,0.02,0.003h3.004c0.175,0,0.316-0.195,0.315-0.436c0.001-0.239-0.14-0.436-0.315-0.436H9.989z"/>
		</defs>
		<clipPath id="SVGID_62_">
			<use xlink:href="#SVGID_61_"  overflow="visible"/>
		</clipPath>
		
			<linearGradient id="SVGID_63_" gradientUnits="userSpaceOnUse" x1="0" y1="62.4126" x2="1" y2="62.4126" gradientTransform="matrix(5.0907 -0.134 -0.134 -5.0907 17.5737 359.1911)">
			<stop  offset="0" style="stop-color:#F0EEEB"/>
			<stop  offset="0" style="stop-color:#E9E6E3"/>
			<stop  offset="0.0634" style="stop-color:#DBD7D6"/>
			<stop  offset="0.1841" style="stop-color:#B5B1B3"/>
			<stop  offset="0.264" style="stop-color:#999499"/>
			<stop  offset="0.5225" style="stop-color:#F8F8F8"/>
			<stop  offset="0.5882" style="stop-color:#EAE9E9"/>
			<stop  offset="0.7147" style="stop-color:#C5C2C3"/>
			<stop  offset="0.8764" style="stop-color:#8D878A"/>
			<stop  offset="1" style="stop-color:#DBDCDC"/>
			<stop  offset="1" style="stop-color:#B4B4B5"/>
		</linearGradient>
		<polygon clip-path="url(#SVGID_62_)" fill="url(#SVGID_63_)" points="9.65,40.97 13.296,40.875 13.322,41.84 9.675,41.936 		"/>
	</g>
	<g>
		<defs>
			<path id="SVGID_64_" d="M9.989,43.869c0,0-0.02,0.001-0.03,0.002c-0.161,0.021-0.286,0.207-0.286,0.433
				c0,0.228,0.125,0.412,0.286,0.434l0.02,0.002h3.004c0.175,0,0.316-0.195,0.316-0.436c0-0.239-0.141-0.435-0.316-0.435H9.989z"/>
		</defs>
		<clipPath id="SVGID_65_">
			<use xlink:href="#SVGID_64_"  overflow="visible"/>
		</clipPath>
		
			<linearGradient id="SVGID_66_" gradientUnits="userSpaceOnUse" x1="0" y1="62.4126" x2="1" y2="62.4126" gradientTransform="matrix(31.4283 30.4687 30.4687 -31.4283 -1913.5973 1983.0925)">
			<stop  offset="0" style="stop-color:#CCDA00"/>
			<stop  offset="1" style="stop-color:#889A0D"/>
		</linearGradient>
		<polygon clip-path="url(#SVGID_65_)" fill="url(#SVGID_66_)" points="11.43,42.056 13.734,44.291 11.542,46.55 9.238,44.317 		"/>
	</g>
	<g>
		<defs>
			<path id="SVGID_67_" d="M9.989,43.869c0,0-0.02,0.001-0.03,0.002c-0.161,0.021-0.286,0.207-0.286,0.433
				c0,0.228,0.125,0.412,0.286,0.434l0.02,0.002h3.004c0.175,0,0.316-0.195,0.316-0.436c0-0.239-0.141-0.435-0.316-0.435H9.989z"/>
		</defs>
		<clipPath id="SVGID_68_">
			<use xlink:href="#SVGID_67_"  overflow="visible"/>
		</clipPath>
		
			<linearGradient id="SVGID_69_" gradientUnits="userSpaceOnUse" x1="0" y1="62.4126" x2="1" y2="62.4126" gradientTransform="matrix(2.7599 -0.0268 -0.0268 -2.7599 10.6015 216.579)">
			<stop  offset="0" style="stop-color:#F0EEEB"/>
			<stop  offset="0" style="stop-color:#E9E6E3"/>
			<stop  offset="0.0634" style="stop-color:#DBD7D6"/>
			<stop  offset="0.1841" style="stop-color:#B5B1B3"/>
			<stop  offset="0.264" style="stop-color:#999499"/>
			<stop  offset="0.5225" style="stop-color:#F8F8F8"/>
			<stop  offset="0.5882" style="stop-color:#EAE9E9"/>
			<stop  offset="0.7147" style="stop-color:#C5C2C3"/>
			<stop  offset="0.8764" style="stop-color:#8D878A"/>
			<stop  offset="1" style="stop-color:#DBDCDC"/>
			<stop  offset="1" style="stop-color:#B4B4B5"/>
		</linearGradient>
		<polygon clip-path="url(#SVGID_68_)" fill="url(#SVGID_69_)" points="9.665,43.869 13.299,43.833 13.308,44.739 9.673,44.774 		
			"/>
	</g>
	<g>
		<defs>
			<path id="SVGID_70_" d="M11.488,58.235c-0.761,0-1.423-0.064-1.774-0.159c-0.025,0.094-0.041,0.202-0.041,0.318
				c0,0.336,0.125,0.612,0.286,0.644c0.01,0.003,0.02,0.004,0.02,0.004s0.955,0.096,1.549,0.096c0.702,0,1.455-0.096,1.455-0.096
				c0.175,0,0.316-0.291,0.316-0.647c0-0.116-0.015-0.225-0.04-0.318C12.908,58.17,12.246,58.235,11.488,58.235"/>
		</defs>
		<clipPath id="SVGID_71_">
			<use xlink:href="#SVGID_70_"  overflow="visible"/>
		</clipPath>
		
			<linearGradient id="SVGID_72_" gradientUnits="userSpaceOnUse" x1="0" y1="62.4087" x2="1" y2="62.4087" gradientTransform="matrix(2.7599 -0.0268 -0.0268 -2.7599 10.6031 230.8754)">
			<stop  offset="0" style="stop-color:#F0EEEB"/>
			<stop  offset="0" style="stop-color:#E9E6E3"/>
			<stop  offset="0.0634" style="stop-color:#DBD7D6"/>
			<stop  offset="0.1841" style="stop-color:#B5B1B3"/>
			<stop  offset="0.264" style="stop-color:#999499"/>
			<stop  offset="0.5225" style="stop-color:#F8F8F8"/>
			<stop  offset="0.5882" style="stop-color:#EAE9E9"/>
			<stop  offset="0.7147" style="stop-color:#C5C2C3"/>
			<stop  offset="0.8764" style="stop-color:#8D878A"/>
			<stop  offset="1" style="stop-color:#DBDCDC"/>
			<stop  offset="1" style="stop-color:#B4B4B5"/>
		</linearGradient>
		<polygon clip-path="url(#SVGID_71_)" fill="url(#SVGID_72_)" points="9.663,58.076 13.299,58.041 13.309,59.137 9.673,59.172 		
			"/>
	</g>
	<g>
		<defs>
			<path id="SVGID_73_" d="M9.989,44.739c0,0-0.02,0.001-0.03,0.002c-0.161,0.021-0.286,0.207-0.286,0.432
				c0,0.066,0.011,0.127,0.03,0.183c0.346-0.097,1.016-0.162,1.785-0.163c0.766,0,1.434,0.065,1.782,0.163
				c0.018-0.056,0.029-0.117,0.029-0.183c0-0.238-0.141-0.434-0.316-0.434H9.989z"/>
		</defs>
		<clipPath id="SVGID_74_">
			<use xlink:href="#SVGID_73_"  overflow="visible"/>
		</clipPath>
		
			<linearGradient id="SVGID_75_" gradientUnits="userSpaceOnUse" x1="0" y1="62.4146" x2="1" y2="62.4146" gradientTransform="matrix(31.4289 30.4692 30.4692 -31.4289 -1914.0493 1983.5591)">
			<stop  offset="0" style="stop-color:#CCDA00"/>
			<stop  offset="1" style="stop-color:#889A0D"/>
		</linearGradient>
		<polygon clip-path="url(#SVGID_74_)" fill="url(#SVGID_75_)" points="11.43,42.926 13.607,45.037 11.542,47.167 9.365,45.056 		
			"/>
	</g>
	<g>
		<defs>
			<path id="SVGID_76_" d="M9.989,44.739c0,0-0.02,0.001-0.03,0.002c-0.161,0.021-0.286,0.207-0.286,0.432
				c0,0.066,0.011,0.127,0.03,0.183c0.346-0.097,1.016-0.162,1.785-0.163c0.766,0,1.434,0.065,1.782,0.163
				c0.018-0.056,0.029-0.117,0.029-0.183c0-0.238-0.141-0.434-0.316-0.434H9.989z"/>
		</defs>
		<clipPath id="SVGID_77_">
			<use xlink:href="#SVGID_76_"  overflow="visible"/>
		</clipPath>
		
			<linearGradient id="SVGID_78_" gradientUnits="userSpaceOnUse" x1="0" y1="62.4126" x2="1" y2="62.4126" gradientTransform="matrix(5.0905 -0.134 -0.134 -5.0905 17.6424 362.823)">
			<stop  offset="0" style="stop-color:#F0EEEB"/>
			<stop  offset="0" style="stop-color:#E9E6E3"/>
			<stop  offset="0.0634" style="stop-color:#DBD7D6"/>
			<stop  offset="0.1841" style="stop-color:#B5B1B3"/>
			<stop  offset="0.264" style="stop-color:#999499"/>
			<stop  offset="0.5225" style="stop-color:#F8F8F8"/>
			<stop  offset="0.5882" style="stop-color:#EAE9E9"/>
			<stop  offset="0.7147" style="stop-color:#C5C2C3"/>
			<stop  offset="0.8764" style="stop-color:#8D878A"/>
			<stop  offset="1" style="stop-color:#DBDCDC"/>
			<stop  offset="1" style="stop-color:#B4B4B5"/>
		</linearGradient>
		<polygon clip-path="url(#SVGID_77_)" fill="url(#SVGID_78_)" points="9.657,44.739 13.296,44.643 13.315,45.354 9.675,45.45 		"/>
	</g>
	<g>
		<defs>
			<path id="SVGID_79_" d="M12.983,45.608H9.989c0,0-0.02,0-0.03-0.002c-0.114-0.015-0.21-0.113-0.256-0.251
				c-0.162,0.046-0.255,0.098-0.255,0.152v8.771l4.078-0.381v-8.391c0-0.055-0.094-0.107-0.256-0.152
				C13.22,45.504,13.11,45.608,12.983,45.608"/>
		</defs>
		<clipPath id="SVGID_80_">
			<use xlink:href="#SVGID_79_"  overflow="visible"/>
		</clipPath>
		
			<linearGradient id="SVGID_81_" gradientUnits="userSpaceOnUse" x1="0" y1="62.4146" x2="1" y2="62.4146" gradientTransform="matrix(31.4281 30.4685 30.4685 -31.4281 -1916.3823 1985.9576)">
			<stop  offset="0" style="stop-color:#CCDA00"/>
			<stop  offset="1" style="stop-color:#889A0D"/>
		</linearGradient>
		<polygon clip-path="url(#SVGID_80_)" fill="url(#SVGID_81_)" points="11.424,43.317 17.986,49.678 11.55,56.317 4.988,49.955 		
			"/>
	</g>
	<g>
		<defs>
			<path id="SVGID_82_" d="M9.989,57.745c0,0-0.02,0.001-0.03,0.003c-0.105,0.021-0.196,0.147-0.245,0.328
				c0.351,0.095,1.013,0.159,1.774,0.159c0.758,0,1.42-0.064,1.771-0.159c-0.054-0.197-0.158-0.331-0.276-0.331H9.989z"/>
		</defs>
		<clipPath id="SVGID_83_">
			<use xlink:href="#SVGID_82_"  overflow="visible"/>
		</clipPath>
		
			<linearGradient id="SVGID_84_" gradientUnits="userSpaceOnUse" x1="0" y1="62.4097" x2="1" y2="62.4097" gradientTransform="matrix(2.7596 -0.0268 -0.0268 -2.7596 10.5966 230.2421)">
			<stop  offset="0" style="stop-color:#F0EEEB"/>
			<stop  offset="0" style="stop-color:#E9E6E3"/>
			<stop  offset="0.0634" style="stop-color:#DBD7D6"/>
			<stop  offset="0.1841" style="stop-color:#B5B1B3"/>
			<stop  offset="0.264" style="stop-color:#999499"/>
			<stop  offset="0.5225" style="stop-color:#F8F8F8"/>
			<stop  offset="0.5882" style="stop-color:#EAE9E9"/>
			<stop  offset="0.7147" style="stop-color:#C5C2C3"/>
			<stop  offset="0.8764" style="stop-color:#8D878A"/>
			<stop  offset="1" style="stop-color:#DBDCDC"/>
			<stop  offset="1" style="stop-color:#B4B4B5"/>
		</linearGradient>
		<polygon clip-path="url(#SVGID_83_)" fill="url(#SVGID_84_)" points="9.709,57.745 13.259,57.71 13.264,58.235 9.714,58.269 		"/>
	</g>
	<g>
		<defs>
			<path id="SVGID_85_" d="M9.703,45.355c0.046,0.138,0.142,0.236,0.256,0.251c0.01,0.002,0.02,0.002,0.02,0.002h3.004
				c0.127,0,0.237-0.104,0.287-0.253c-0.348-0.098-1.016-0.163-1.782-0.163C10.719,45.193,10.049,45.258,9.703,45.355"/>
		</defs>
		<clipPath id="SVGID_86_">
			<use xlink:href="#SVGID_85_"  overflow="visible"/>
		</clipPath>
		
			<linearGradient id="SVGID_87_" gradientUnits="userSpaceOnUse" x1="0" y1="62.4126" x2="1" y2="62.4126" gradientTransform="matrix(31.4286 30.469 30.469 -31.4286 -1914.1512 1983.6714)">
			<stop  offset="0" style="stop-color:#CCDA00"/>
			<stop  offset="1" style="stop-color:#889A0D"/>
		</linearGradient>
		<polygon clip-path="url(#SVGID_86_)" fill="url(#SVGID_87_)" points="11.431,43.409 13.478,45.393 11.542,47.39 9.495,45.406 		
			"/>
	</g>
	<g>
		<defs>
			<path id="SVGID_88_" d="M9.703,45.355c0.046,0.138,0.142,0.236,0.256,0.251c0.01,0.002,0.02,0.002,0.02,0.002h3.004
				c0.127,0,0.237-0.104,0.287-0.253c-0.348-0.098-1.016-0.163-1.782-0.163C10.719,45.193,10.049,45.258,9.703,45.355"/>
		</defs>
		<clipPath id="SVGID_89_">
			<use xlink:href="#SVGID_88_"  overflow="visible"/>
		</clipPath>
		
			<linearGradient id="SVGID_90_" gradientUnits="userSpaceOnUse" x1="0" y1="62.4155" x2="1" y2="62.4155" gradientTransform="matrix(5.0909 -0.134 -0.134 -5.0909 17.6525 363.2117)">
			<stop  offset="0" style="stop-color:#F0EEEB"/>
			<stop  offset="0" style="stop-color:#E9E6E3"/>
			<stop  offset="0.0634" style="stop-color:#DBD7D6"/>
			<stop  offset="0.1841" style="stop-color:#B5B1B3"/>
			<stop  offset="0.264" style="stop-color:#999499"/>
			<stop  offset="0.5225" style="stop-color:#F8F8F8"/>
			<stop  offset="0.5882" style="stop-color:#EAE9E9"/>
			<stop  offset="0.7147" style="stop-color:#C5C2C3"/>
			<stop  offset="0.8764" style="stop-color:#8D878A"/>
			<stop  offset="1" style="stop-color:#DBDCDC"/>
			<stop  offset="1" style="stop-color:#B4B4B5"/>
		</linearGradient>
		<polygon clip-path="url(#SVGID_89_)" fill="url(#SVGID_90_)" points="9.692,45.192 13.268,45.098 13.281,45.607 9.706,45.702 		
			"/>
	</g>
	<g>
		<defs>
			<path id="SVGID_91_" d="M9.703,45.355c-0.162,0.046-0.255,0.098-0.255,0.152v8.771v3.653l0.003,0.002
				c0.013,0.051,0.107,0.1,0.263,0.142c0.351,0.095,1.013,0.159,1.774,0.159c0.758,0,1.42-0.064,1.771-0.159
				c0.156-0.042,0.251-0.091,0.264-0.144h0.003v-4.034v-8.391c0-0.055-0.094-0.107-0.256-0.152
				c-0.348-0.098-1.016-0.163-1.782-0.163C10.719,45.193,10.049,45.258,9.703,45.355"/>
		</defs>
		<clipPath id="SVGID_92_">
			<use xlink:href="#SVGID_91_"  overflow="visible"/>
		</clipPath>
		
			<linearGradient id="SVGID_93_" gradientUnits="userSpaceOnUse" x1="0" y1="62.4116" x2="1" y2="62.4116" gradientTransform="matrix(3.8694 0.0387 0.0387 -3.8694 5.3596 293.1725)">
			<stop  offset="0" style="stop-color:#F0EEEB"/>
			<stop  offset="0.3846" style="stop-color:#F0EEEB"/>
			<stop  offset="0.4323" style="stop-color:#E2E0DF"/>
			<stop  offset="0.5225" style="stop-color:#BCBDBE"/>
			<stop  offset="0.5977" style="stop-color:#B2B4B5"/>
			<stop  offset="0.725" style="stop-color:#989A9C"/>
			<stop  offset="0.8879" style="stop-color:#6D7274"/>
			<stop  offset="1" style="stop-color:#4B5254"/>
		</linearGradient>
		<polygon clip-path="url(#SVGID_92_)" fill="url(#SVGID_93_)" points="9.448,45.151 13.656,45.193 13.525,58.275 9.317,58.233 		
			"/>
	</g>
	<g>
		<defs>
			<path id="SVGID_94_" d="M10.564,40.101h1.852c1.471-0.118,2.863-0.513,4.126-1.133c-1.498,0.348-3.073,0.534-4.7,0.534
				c-2.16,0-4.229-0.327-6.142-0.927C7.149,39.422,8.8,39.96,10.564,40.101"/>
		</defs>
		<clipPath id="SVGID_95_">
			<use xlink:href="#SVGID_94_"  overflow="visible"/>
		</clipPath>
		
			<linearGradient id="SVGID_96_" gradientUnits="userSpaceOnUse" x1="0" y1="62.4038" x2="1" y2="62.4038" gradientTransform="matrix(31.4273 30.4678 30.4678 -31.4273 -1910.9423 1980.3646)">
			<stop  offset="0" style="stop-color:#CCDA00"/>
			<stop  offset="1" style="stop-color:#889A0D"/>
		</linearGradient>
		<polygon clip-path="url(#SVGID_95_)" fill="url(#SVGID_96_)" points="10.953,33.157 17.304,39.315 11.289,45.519 4.938,39.362 		
			"/>
	</g>
	<g>
		<defs>
			<path id="SVGID_97_" d="M10.564,40.101h1.852c1.471-0.118,2.863-0.513,4.126-1.133c-1.498,0.348-3.073,0.534-4.7,0.534
				c-2.16,0-4.229-0.327-6.142-0.927C7.149,39.422,8.8,39.96,10.564,40.101"/>
		</defs>
		<clipPath id="SVGID_98_">
			<use xlink:href="#SVGID_97_"  overflow="visible"/>
		</clipPath>
		
			<linearGradient id="SVGID_99_" gradientUnits="userSpaceOnUse" x1="0" y1="62.4263" x2="1" y2="62.4263" gradientTransform="matrix(-16.5532 -21.3512 -21.3512 16.5532 1347.6613 -989.2671)">
			<stop  offset="0" style="stop-color:#B8C500"/>
			<stop  offset="1" style="stop-color:#D7E050"/>
		</linearGradient>
		<polygon clip-path="url(#SVGID_98_)" fill="url(#SVGID_99_)" points="9.77,45.351 4.961,39.148 12.472,33.326 17.28,39.528 		"/>
	</g>
	<g>
		<defs>
			<path id="SVGID_100_" d="M10.564,40.101c0.303,0.023,0.611,0.037,0.923,0.037c0.313,0,0.622-0.014,0.929-0.037H10.564z"/>
		</defs>
		<clipPath id="SVGID_101_">
			<use xlink:href="#SVGID_100_"  overflow="visible"/>
		</clipPath>
		
			<linearGradient id="SVGID_102_" gradientUnits="userSpaceOnUse" x1="0" y1="62.4126" x2="1" y2="62.4126" gradientTransform="matrix(31.4237 30.4642 30.4642 -31.4237 -1911.2156 1980.6392)">
			<stop  offset="0" style="stop-color:#CCDA00"/>
			<stop  offset="1" style="stop-color:#889A0D"/>
		</linearGradient>
		<polygon clip-path="url(#SVGID_101_)" fill="url(#SVGID_102_)" points="11.461,39.175 12.435,40.119 11.519,41.064 10.545,40.121 
					"/>
	</g>
	<g>
		<defs>
			<path id="SVGID_103_" d="M10.564,40.101c0.303,0.023,0.611,0.037,0.923,0.037c0.313,0,0.622-0.014,0.929-0.037H10.564z"/>
		</defs>
		<clipPath id="SVGID_104_">
			<use xlink:href="#SVGID_103_"  overflow="visible"/>
		</clipPath>
		
			<linearGradient id="SVGID_105_" gradientUnits="userSpaceOnUse" x1="0" y1="62.4136" x2="1" y2="62.4136" gradientTransform="matrix(-16.551 -21.3484 -21.3484 16.551 1347.0747 -988.8121)">
			<stop  offset="0" style="stop-color:#B8C500"/>
			<stop  offset="1" style="stop-color:#D7E050"/>
		</linearGradient>
		<polygon clip-path="url(#SVGID_104_)" fill="url(#SVGID_105_)" points="11.259,41.036 10.545,40.115 11.721,39.204 12.435,40.125 
					"/>
	</g>
	<g>
		<defs>
			<path id="SVGID_106_" d="M10.564,40.101c0.303,0.023,0.611,0.037,0.923,0.037c0.313,0,0.622-0.014,0.929-0.037H10.564z"/>
		</defs>
		<clipPath id="SVGID_107_">
			<use xlink:href="#SVGID_106_"  overflow="visible"/>
		</clipPath>
		
			<linearGradient id="SVGID_108_" gradientUnits="userSpaceOnUse" x1="0" y1="62.4106" x2="1" y2="62.4106" gradientTransform="matrix(2.7592 -0.0268 -0.0268 -2.7592 10.5706 212.3463)">
			<stop  offset="0" style="stop-color:#F0EEEB"/>
			<stop  offset="0" style="stop-color:#E9E6E3"/>
			<stop  offset="0.0634" style="stop-color:#DBD7D6"/>
			<stop  offset="0.1841" style="stop-color:#B5B1B3"/>
			<stop  offset="0.264" style="stop-color:#999499"/>
			<stop  offset="0.5225" style="stop-color:#F8F8F8"/>
			<stop  offset="0.5882" style="stop-color:#EAE9E9"/>
			<stop  offset="0.7147" style="stop-color:#C5C2C3"/>
			<stop  offset="0.8764" style="stop-color:#8D878A"/>
			<stop  offset="1" style="stop-color:#DBDCDC"/>
			<stop  offset="1" style="stop-color:#B4B4B5"/>
		</linearGradient>
		<polygon clip-path="url(#SVGID_107_)" fill="url(#SVGID_108_)" points="10.563,40.101 12.416,40.083 12.417,40.138 10.564,40.157 
					"/>
	</g>
	<g>
		<defs>
			<path id="SVGID_109_" d="M10.564,40.101c0.303,0.023,0.611,0.037,0.923,0.037c0.313,0,0.622-0.014,0.929-0.037
				c1.471-0.118,2.863-0.513,4.126-1.133c-1.498,0.348-3.073,0.534-4.7,0.534c-2.16,0-4.229-0.327-6.142-0.927
				C7.149,39.422,8.8,39.96,10.564,40.101"/>
		</defs>
		<clipPath id="SVGID_110_">
			<use xlink:href="#SVGID_109_"  overflow="visible"/>
		</clipPath>
		
			<linearGradient id="SVGID_111_" gradientUnits="userSpaceOnUse" x1="0" y1="62.4126" x2="1" y2="62.4126" gradientTransform="matrix(-35.9753 145.9835 145.9835 35.9753 -9066.3203 -2343.428)">
			<stop  offset="0" style="stop-color:#F0EEEB"/>
			<stop  offset="0" style="stop-color:#E9E6E3"/>
			<stop  offset="0.0634" style="stop-color:#DBD7D6"/>
			<stop  offset="0.1841" style="stop-color:#B5B1B3"/>
			<stop  offset="0.264" style="stop-color:#999499"/>
			<stop  offset="0.5225" style="stop-color:#F8F8F8"/>
			<stop  offset="0.5882" style="stop-color:#EAE9E9"/>
			<stop  offset="0.7147" style="stop-color:#C5C2C3"/>
			<stop  offset="0.8764" style="stop-color:#8D878A"/>
			<stop  offset="1" style="stop-color:#DBDCDC"/>
			<stop  offset="1" style="stop-color:#B4B4B5"/>
		</linearGradient>
		<polygon clip-path="url(#SVGID_110_)" fill="url(#SVGID_111_)" points="16.905,38.666 15.921,42.658 5.337,40.049 6.321,36.057 		
			"/>
	</g>
	<g>
		<defs>
			<path id="SVGID_112_" d="M0.005,28.341l0.991-0.078c0.206-5.617,4.823-10.108,10.49-10.108c5.798,0,10.498,4.7,10.498,10.498
				c0,2.077-0.604,4.014-1.644,5.643l-0.016,1.693c1.654-1.99,2.649-4.547,2.649-7.336c0-6.344-5.143-11.486-11.487-11.486
				C5.247,17.167,0.17,22.142,0.005,28.341"/>
		</defs>
		<clipPath id="SVGID_113_">
			<use xlink:href="#SVGID_112_"  overflow="visible"/>
		</clipPath>
		
			<linearGradient id="SVGID_114_" gradientUnits="userSpaceOnUse" x1="0" y1="62.3931" x2="1" y2="62.3931" gradientTransform="matrix(-5.949 24.1402 24.1402 5.949 -1492.238 -354.5305)">
			<stop  offset="0" style="stop-color:#F0EEEB"/>
			<stop  offset="0" style="stop-color:#E9E6E3"/>
			<stop  offset="0.0634" style="stop-color:#DBD7D6"/>
			<stop  offset="0.1841" style="stop-color:#B5B1B3"/>
			<stop  offset="0.264" style="stop-color:#999499"/>
			<stop  offset="0.5225" style="stop-color:#F8F8F8"/>
			<stop  offset="0.5882" style="stop-color:#EAE9E9"/>
			<stop  offset="0.7147" style="stop-color:#C5C2C3"/>
			<stop  offset="0.8764" style="stop-color:#8D878A"/>
			<stop  offset="1" style="stop-color:#DBDCDC"/>
			<stop  offset="1" style="stop-color:#B4B4B5"/>
		</linearGradient>
		<polygon clip-path="url(#SVGID_113_)" fill="url(#SVGID_114_)" points="27.346,18.244 21.658,41.325 -4.368,34.911 1.32,11.831 		
			"/>
	</g>
	<g>
		<defs>
			<path id="SVGID_115_" d="M0.005,28.341l0.991-0.078c0.206-5.617,4.823-10.108,10.49-10.108c5.798,0,10.498,4.7,10.498,10.498
				c0,2.077-0.604,4.014-1.644,5.643l-0.016,1.693c1.654-1.99,2.649-4.547,2.649-7.336c0-6.344-5.143-11.486-11.487-11.486
				C5.247,17.167,0.17,22.142,0.005,28.341"/>
		</defs>
		<clipPath id="SVGID_116_">
			<use xlink:href="#SVGID_115_"  overflow="visible"/>
		</clipPath>
		
			<linearGradient id="SVGID_117_" gradientUnits="userSpaceOnUse" x1="0" y1="62.3735" x2="1" y2="62.3735" gradientTransform="matrix(-5.4614 16.1041 16.1041 5.4614 -989.2544 -325.0592)">
			<stop  offset="0" style="stop-color:#F0EEEB"/>
			<stop  offset="0" style="stop-color:#E9E6E3"/>
			<stop  offset="0.0368" style="stop-color:#DAD8D6"/>
			<stop  offset="0.1072" style="stop-color:#B4B4B3"/>
			<stop  offset="0.2033" style="stop-color:#767A7B"/>
			<stop  offset="0.264" style="stop-color:#4B5254"/>
			<stop  offset="0.2721" style="stop-color:#505759"/>
			<stop  offset="0.3782" style="stop-color:#939798"/>
			<stop  offset="0.4672" style="stop-color:#C3C5C6"/>
			<stop  offset="0.5348" style="stop-color:#E1E1E2"/>
			<stop  offset="0.573" style="stop-color:#ECECED"/>
			<stop  offset="0.6334" style="stop-color:#E2E3E4"/>
			<stop  offset="0.7345" style="stop-color:#C9CBCD"/>
			<stop  offset="0.8632" style="stop-color:#9FA3A8"/>
			<stop  offset="0.8764" style="stop-color:#9A9FA4"/>
			<stop  offset="1" style="stop-color:#DBDCDC"/>
			<stop  offset="1" style="stop-color:#B4B4B5"/>
		</linearGradient>
		<polygon clip-path="url(#SVGID_116_)" fill="url(#SVGID_117_)" points="28.698,19.108 20.604,42.974 -5.72,34.047 2.374,10.181 		
			"/>
	</g>
	<g>
		<defs>
			<path id="SVGID_118_" d="M0.05,29.719c0.349,3.782,2.53,7.034,5.65,8.857c1.913,0.6,3.982,0.927,6.142,0.927
				c1.627,0,3.202-0.187,4.7-0.534c1.085-0.533,2.075-1.232,2.935-2.065l0.01-1.454c-1.925,2.264-4.795,3.702-8.001,3.702
				c-5.465,0-9.953-4.177-10.451-9.511C0.71,29.666,0.383,29.692,0.05,29.719"/>
		</defs>
		<clipPath id="SVGID_119_">
			<use xlink:href="#SVGID_118_"  overflow="visible"/>
		</clipPath>
		
			<linearGradient id="SVGID_120_" gradientUnits="userSpaceOnUse" x1="0" y1="62.4106" x2="1" y2="62.4106" gradientTransform="matrix(31.4284 30.4688 30.4688 -31.4284 -1909.5298 1978.9077)">
			<stop  offset="0" style="stop-color:#CCDA00"/>
			<stop  offset="1" style="stop-color:#889A0D"/>
		</linearGradient>
		<polygon clip-path="url(#SVGID_119_)" fill="url(#SVGID_120_)" points="9.467,19.926 24.416,34.418 10.07,49.216 -4.879,34.724 		
			"/>
	</g>
	<g>
		<defs>
			<path id="SVGID_121_" d="M0.05,29.719c0.349,3.782,2.53,7.034,5.65,8.857c1.913,0.6,3.982,0.927,6.142,0.927
				c1.627,0,3.202-0.187,4.7-0.534c1.085-0.533,2.075-1.232,2.935-2.065l0.01-1.454c-1.925,2.264-4.795,3.702-8.001,3.702
				c-5.465,0-9.953-4.177-10.451-9.511C0.71,29.666,0.383,29.692,0.05,29.719"/>
		</defs>
		<clipPath id="SVGID_122_">
			<use xlink:href="#SVGID_121_"  overflow="visible"/>
		</clipPath>
		
			<linearGradient id="SVGID_123_" gradientUnits="userSpaceOnUse" x1="0" y1="62.4243" x2="1" y2="62.4243" gradientTransform="matrix(-16.554 -21.3523 -21.3523 16.554 1349.1624 -990.4377)">
			<stop  offset="0" style="stop-color:#B8C500"/>
			<stop  offset="1" style="stop-color:#D7E050"/>
		</linearGradient>
		<polygon clip-path="url(#SVGID_122_)" fill="url(#SVGID_123_)" points="7.347,48.915 -4.726,33.342 12.19,20.228 24.263,35.8 		
			"/>
	</g>
	<g>
		<defs>
			<path id="SVGID_124_" d="M0.05,29.719c0.349,3.782,2.53,7.034,5.65,8.857c1.913,0.6,3.982,0.927,6.142,0.927
				c1.627,0,3.202-0.187,4.7-0.534c1.085-0.533,2.075-1.232,2.935-2.065l0.01-1.454c-1.925,2.264-4.795,3.702-8.001,3.702
				c-5.465,0-9.953-4.177-10.451-9.511C0.71,29.666,0.383,29.692,0.05,29.719"/>
		</defs>
		<clipPath id="SVGID_125_">
			<use xlink:href="#SVGID_124_"  overflow="visible"/>
		</clipPath>
		
			<linearGradient id="SVGID_126_" gradientUnits="userSpaceOnUse" x1="0" y1="62.4243" x2="1" y2="62.4243" gradientTransform="matrix(-5.9486 24.1385 24.1385 5.9486 -1492.6659 -354.639)">
			<stop  offset="0" style="stop-color:#F0EEEB"/>
			<stop  offset="0" style="stop-color:#E9E6E3"/>
			<stop  offset="0.0634" style="stop-color:#DBD7D6"/>
			<stop  offset="0.1841" style="stop-color:#B5B1B3"/>
			<stop  offset="0.264" style="stop-color:#999499"/>
			<stop  offset="0.5225" style="stop-color:#F8F8F8"/>
			<stop  offset="0.5882" style="stop-color:#EAE9E9"/>
			<stop  offset="0.7147" style="stop-color:#C5C2C3"/>
			<stop  offset="0.8764" style="stop-color:#8D878A"/>
			<stop  offset="1" style="stop-color:#DBDCDC"/>
			<stop  offset="1" style="stop-color:#B4B4B5"/>
		</linearGradient>
		<polygon clip-path="url(#SVGID_125_)" fill="url(#SVGID_126_)" points="21.778,30.204 18.374,44.018 -2.241,38.938 1.163,25.124 
					"/>
	</g>
	<g>
		<defs>
			<path id="SVGID_127_" d="M0.005,28.341C0.002,28.443,0,28.549,0,28.653c0,0.36,0.018,0.715,0.05,1.066
				c0.349,3.782,2.53,7.034,5.65,8.857c1.913,0.6,3.982,0.927,6.142,0.927c1.627,0,3.202-0.187,4.7-0.534
				c1.085-0.533,2.075-1.232,2.935-2.065c0.299-0.289,0.581-0.596,0.847-0.914l0.016-1.693c-0.258,0.404-0.544,0.789-0.853,1.153
				c-1.925,2.264-4.795,3.702-8.001,3.702c-5.465,0-9.953-4.177-10.451-9.511c-0.031-0.325-0.047-0.654-0.047-0.987
				c0-0.13,0.003-0.261,0.008-0.39L0.005,28.341z"/>
		</defs>
		<clipPath id="SVGID_128_">
			<use xlink:href="#SVGID_127_"  overflow="visible"/>
		</clipPath>
		
			<linearGradient id="SVGID_129_" gradientUnits="userSpaceOnUse" x1="0" y1="62.4087" x2="1" y2="62.4087" gradientTransform="matrix(17.553 -0.3599 -0.3599 -17.553 25.0711 1129.491)">
			<stop  offset="0" style="stop-color:#F0EEEB"/>
			<stop  offset="0" style="stop-color:#E9E6E3"/>
			<stop  offset="0.3801" style="stop-color:#F3F2F1"/>
			<stop  offset="0.5225" style="stop-color:#F8F8F8"/>
			<stop  offset="0.5975" style="stop-color:#E9E9E9"/>
			<stop  offset="0.7411" style="stop-color:#C3C3C3"/>
			<stop  offset="0.9368" style="stop-color:#868586"/>
			<stop  offset="1" style="stop-color:#717071"/>
		</linearGradient>
		<polygon clip-path="url(#SVGID_128_)" fill="url(#SVGID_129_)" points="-0.23,28.267 20.332,27.846 20.57,39.498 0.009,39.919 		
			"/>
	</g>
	<g>
		<path fill="#FFFFFF" d="M5.643,26.497c-0.173,1.828,0.665,3.598-0.525,3.485c-1.189-0.112-2.013-1.686-1.839-3.514
			c0.173-1.828,1.277-3.219,2.466-3.107C6.935,23.474,5.816,24.668,5.643,26.497"/>
		<path d="M57.273,26.01c5.616,1.48,7.575,2.656,7.575,4.658c0,1.872-1.35,3.701-2.742,3.701c-0.74,0-1.089-0.393-1.394-1.524
			c-0.827-2.83-1.654-4.267-3.613-6.443L57.273,26.01z M57.404,41.813c1.48,0.306,2.525,0.479,2.917,0.479
			c0.783,0,0.87-0.174,2.698-4.049c1.524-3.222,4.267-9.447,5.616-12.799l0.523,0.174l-4.615,16.674
			c-0.218,0.87-0.348,1.522-0.348,1.959c0,0.565,0.087,0.914,0.566,2.264c0.609,1.698,0.87,2.917,0.87,4.135
			c0,1.395-0.434,2.525-1.349,3.396c-0.827,0.74-1.915,1.219-2.916,1.219c-0.915,0-1.437-0.479-1.437-1.262
			c0-0.349,0.043-0.828,0.13-1.307c0.479-2.961,0.697-4.875,0.697-6.442c0-2.308-0.479-2.83-3.483-3.918L57.404,41.813z
			 M59.886,16.52c5.703,1.35,7.793,2.612,7.793,4.702c0,1.785-1.35,3.57-2.699,3.57c-0.654,0-0.958-0.349-1.437-1.567
			c-1.088-2.874-1.959-4.31-3.918-6.356L59.886,16.52z M79.258,39.462c0.174-1.394,0.218-2.09,0.304-4.266h-5.136v0.869
			c0,0.958-0.523,1.133-2.96,1.133c-1.437,0-1.655-0.131-1.655-0.958c0.087-2.699,0.13-3.831,0.13-5.833
			c0-1.872-0.043-3.483-0.13-5.921c2.177,0.958,2.83,1.263,4.876,2.351h14.845c1.002-1.088,1.35-1.437,2.351-2.525
			c1.524,1.045,2.003,1.393,3.483,2.481c0.348,0.262,0.479,0.436,0.479,0.61c0,0.348-0.261,0.566-1.393,1.132v1.872
			c0,1.523,0,2.002,0.087,4.833c0,0.913-0.305,1.132-2.09,1.219c2.09,1.567,2.395,1.785,4.223,3.265
			c0.174,0.174,0.261,0.305,0.261,0.393c0,0.174-0.174,0.261-0.566,0.261H83.743c-0.304,1.785-0.566,2.961-1.001,4.223h7.836
			c1.35-1.479,1.742-1.915,3.004-3.221c1.96,1.393,2.569,1.872,4.528,3.526c0.174,0.174,0.261,0.305,0.261,0.392
			c0,0.13-0.131,0.218-0.349,0.218h-14.54c1.654,1.61,2.961,2.395,5.442,3.178c2.569,0.826,5.137,1.176,9.839,1.306v0.479
			c-1.568,0.741-2.438,2.047-2.83,4.224c-0.087,0.479-0.218,0.609-0.479,0.609c-0.218,0-0.784-0.131-1.785-0.479
			c-3.961-1.307-6.399-2.917-8.663-5.659c-1.002-1.176-1.481-1.873-2.351-3.657H82.35c-1.436,3.134-3.961,5.659-7.27,7.4
			c-2.438,1.219-4.963,1.96-9.796,2.787l-0.13-0.479c4.832-1.872,7.531-3.482,9.883-5.965c1.131-1.175,1.871-2.264,2.655-3.743
			H70.16c-1.045,0-2.003,0.086-2.916,0.261l-0.262-1.567c1.132,0.261,2.09,0.392,3.178,0.392h7.967
			c0.479-1.262,0.741-2.351,1.045-4.223h-7.357c-1.045,0-1.873,0.087-2.83,0.261L68.68,39.07c1.219,0.306,2.002,0.393,3.135,0.393
			H79.258z M84.569,20.611v-1.48c0-1.524,0-2.089-0.13-3.352c6.225,0.566,6.356,0.61,6.356,1.132c0,0.392-0.349,0.566-1.698,0.958
			v2.742h2.177c1.175-1.436,1.524-1.872,2.699-3.221c1.916,1.437,2.481,1.872,4.223,3.395c0.218,0.175,0.304,0.349,0.304,0.436
			c0,0.174-0.217,0.305-0.565,0.305h-8.838c0,0.827,0,1.132,0.043,2.394c0,1.001-0.565,1.219-3.221,1.219
			c-1.219,0-1.437-0.13-1.437-0.827c0.044-1.437,0.044-1.698,0.087-2.786h-5.311v2.699c0,0.914-0.435,1.088-2.873,1.088
			c-1.611,0-1.742-0.087-1.742-0.827c0.044-1.654,0.087-2.133,0.087-2.96h-3.526c-0.74,0-1.524,0.087-2.394,0.261l-0.261-1.48
			c1.088,0.217,1.784,0.304,2.655,0.304h3.526v-0.827c0-1.436-0.043-2.481-0.13-3.961c5.964,0.522,6.356,0.609,6.356,1.175
			c0,0.392-0.392,0.609-1.698,0.958c-0.043,0.74-0.043,1.219-0.043,1.654v1.001H84.569z M74.426,27.751v6.53h5.136
			c0.088-1.741,0.088-1.958,0.088-4.179c0-0.218,0-0.392-0.043-2.351H74.426z M89.664,39.462c1.306-1.48,1.654-1.872,2.743-3.004
			c-0.523,0.044-0.827,0.044-1.175,0.044c-1.089,0-1.307-0.131-1.307-0.784v-0.521h-5.79c-0.087,2.133-0.131,2.96-0.305,4.266
			H89.664z M84.309,27.751c-0.043,2.873-0.087,5.05-0.13,6.53h5.746v-6.53H84.309z"/>
		<path d="M120.104,21.439v-2.525c0-0.914-0.043-1.742-0.218-3.526c1.132,0.087,2.046,0.13,2.569,0.174
			c3.134,0.217,3.831,0.348,4.223,0.74c0.087,0.087,0.173,0.261,0.218,0.522c0,0.174-0.785,0.61-1.829,1.001v3.614h10.187
			c1.175-1.306,1.567-1.698,2.787-2.917c2.219,1.698,2.873,2.22,5.05,4.049c0.304,0.305,0.434,0.479,0.434,0.696
			c0,0.131-0.13,0.305-0.304,0.436c-0.175,0.087-0.566,0.174-1.045,0.217l-0.871,0.087c-0.305,0.044-0.653,0.044-0.957,0.088
			c-1.263,0.739-1.263,0.739-4.137,2.525c-0.261,0.13-0.609,0.348-1.784,1.001l1.654,1.219c0.305,0.218,0.523,0.479,0.523,0.697
			c0,0.13-0.175,0.347-0.348,0.435c-0.131,0.087-0.567,0.174-1.089,0.217l-0.697,0.044c-0.217,0-0.435,0-0.653,0.043
			c-2.35,1.219-4.745,2.352-7.836,3.701c0.784,0.174,1.045,0.348,1.045,0.653c0,0.392-0.218,0.521-1.872,1.045v3.438h9.011
			c1.481-1.828,1.96-2.395,3.57-4.092c2.352,1.785,3.092,2.395,5.573,4.484c0.174,0.174,0.217,0.261,0.217,0.348
			s-0.13,0.174-0.304,0.174h-18.067v5.05c0,2.222,0,2.525,0.043,4.832v0.479v1.046c-0.13,1.784-0.609,2.524-2.133,3.264
			c-1.088,0.523-3.309,1.002-4.527,1.002c-0.436,0-0.522-0.087-0.61-0.739c-0.087-0.827-0.348-1.524-0.784-2.003
			c-1.088-1.22-2.481-1.741-7.4-2.699l0.043-0.522c6.356,0.392,6.704,0.392,9.752,0.479c0.478-0.043,0.653-0.262,0.653-1.001v-9.187
			h-13.714c-1.088,0-2.002,0.087-3.221,0.349l-0.348-1.654c1.262,0.305,2.133,0.392,3.526,0.392h13.757v-1.437
			c0-2.22-0.044-2.916-0.261-4.614c1.262,0.13,2.786,0.348,4.484,0.609c1.872-2.221,1.872-2.221,3.874-5.006h-14.061
			c-1.437,0-2.09,0.043-3.353,0.261l-0.391-1.568c1.349,0.305,2.394,0.393,3.7,0.393h14.236c1.132-1.089,1.48-1.437,2.699-2.569
			c1.35,1.001,1.916,1.393,2.743,2.046c1.219-3.222,1.219-3.222,1.61-4.876h-25.903c0.044,0.566,0.044,0.784,0.044,1.219
			c0,1.698-0.305,3.004-0.958,4.223c-0.784,1.437-1.959,2.307-3.135,2.307c-1.262,0-2.35-1.567-2.35-3.439
			c0-0.435,0.13-0.871,0.391-1.175c0.261-0.261,0.261-0.261,1.524-1.132c2.177-1.393,3.048-2.917,3.309-5.834h0.609
			c0.305,1.48,0.392,1.959,0.523,2.917H120.104z"/>
		<path d="M159.143,28.971h1.611c1.131-1.48,1.479-1.916,2.567-3.265c1.785,1.48,2.309,1.959,3.961,3.613
			c0.089,0.087,0.176,0.261,0.176,0.348c0,0.131-0.176,0.218-0.479,0.218h-7.836v8.229h0.871c0.957-1.088,1.219-1.437,2.176-2.482
			c1.351,1.002,1.741,1.308,3.047,2.396c0.394,0.305,0.523,0.521,0.523,0.696c0,0.349-0.305,0.565-1.35,1.044v3.57
			c0,3.439,0.044,5.573,0.218,9.621c0,0.479-0.087,0.697-0.262,0.828c-0.349,0.304-1.393,0.478-2.872,0.478
			c-1.22,0-1.48-0.13-1.48-0.782v-2.134h-5.834v2.655c0,0.392-0.044,0.61-0.174,0.74c-0.305,0.349-1.307,0.522-2.918,0.522
			c-1.436,0-1.653-0.131-1.653-0.958c0.174-4.354,0.217-6.573,0.217-11.58c0-3.265-0.043-4.527-0.217-7.097
			c2.002,1.046,2.611,1.395,4.396,2.482h0.958v-8.229h-4.44c-1.176,0-1.872,0.087-2.656,0.261l-0.261-1.48
			c0.958,0.218,1.828,0.305,2.917,0.305h4.44v-6.835c-2.743,0.435-4.049,0.609-7.227,0.871l-0.088-0.523
			c3.44-1.045,6.138-2.133,9.752-4.048c2.309-1.176,3.048-1.655,4.179-2.7c4.659,3.004,5.182,3.396,5.182,3.788
			c0,0.261-0.306,0.479-0.696,0.479c-0.479,0-1.045-0.088-1.655-0.305c-2.351,0.87-3.265,1.132-5.093,1.567V28.971z M154.18,50.432
			h5.834V39.027h-5.834V50.432z M181.346,33.758c1.262-1.479,1.654-1.915,2.916-3.308c1.829,1.522,2.395,2.002,4.18,3.657
			c0.13,0.174,0.174,0.261,0.174,0.348c0,0.131-0.174,0.218-0.435,0.218h-10.405v7.401h2.916c1.307-1.438,1.742-1.872,3.048-3.223
			c1.916,1.48,2.481,1.959,4.267,3.527c0.131,0.13,0.218,0.261,0.218,0.348c0,0.175-0.174,0.262-0.436,0.262h-10.013v2.917
			c0.087,4.876,0.13,7.705,0.174,8.533c0,1.044-0.609,1.262-3.265,1.262c-1.479,0-1.741-0.13-1.741-0.87
			c0.043-2.003,0.13-7.402,0.13-8.62v-3.222h-5.094c-1.045,0-1.609,0.044-2.48,0.261l-0.219-1.48
			c0.914,0.219,1.654,0.306,2.699,0.306h5.094v-7.401h-6.313c-0.957,0-1.872,0.087-2.655,0.305l-0.218-1.567
			c0.74,0.218,1.828,0.348,2.873,0.348h9.927c1.307-3.656,2.089-6.747,2.612-10.143c5.18,1.48,6.094,1.785,6.094,2.264
			c0,0.391-0.564,0.609-1.916,0.827c-1.479,2.394-3.613,5.181-5.354,7.052H181.346z M180.822,22.31
			c1.22-1.437,1.567-1.872,2.786-3.265c1.916,1.48,2.482,1.959,4.225,3.613c0.173,0.131,0.261,0.261,0.261,0.349
			c0,0.13-0.175,0.217-0.437,0.217h-19.938c-0.914,0-1.741,0.087-2.655,0.305l-0.306-1.568c1.002,0.262,1.873,0.349,2.961,0.349
			h5.354v-2.351c0-1.741-0.044-2.394-0.261-4.049c1.351,0.131,2.351,0.262,3.047,0.305c3.136,0.218,3.657,0.348,3.657,0.871
			c0,0.392-0.435,0.653-1.741,1.088v4.136H180.822z M168.197,23.703c3.657,2.351,5.529,4.397,5.529,6.008
			c0,1.567-1.523,3.483-2.699,3.483c-0.436,0-0.783-0.306-0.958-0.741c-0.174-0.348-0.217-0.522-0.392-1.915
			c-0.348-2.786-0.783-4.353-1.785-6.617L168.197,23.703z"/>
		<path d="M228.394,43.033c0.87-1.263,1.132-1.655,2.09-2.917c1.351,1.393,1.698,1.785,2.918,3.178
			c0.13,0.174,0.217,0.304,0.217,0.393c0,0.174-0.174,0.261-0.566,0.261h-37.788c-1.088,0-2.046,0.087-3.091,0.261l-0.218-1.523
			c1.306,0.261,2.09,0.349,3.265,0.349h1.351V25.4c0-1.001-0.044-1.437-0.131-5.05c2.308,1.045,3.004,1.393,5.268,2.656h3.831V19
			c0-1.088-0.043-1.828-0.217-3.396c4.875,0.436,5.224,0.479,5.746,0.653c0.348,0.131,0.565,0.349,0.565,0.567
			c0,0.391-0.392,0.609-1.655,1.001v5.181h4.398v-3.527c0-1.436-0.043-2.176-0.218-3.831c4.919,0.479,5.268,0.479,5.79,0.697
			c0.348,0.13,0.522,0.305,0.522,0.522c0,0.436-0.436,0.653-1.654,1.001v5.138h4.223c0.827-0.871,1.654-1.785,2.525-2.656
			c1.61,1.175,2.09,1.567,3.526,2.742c0.435,0.393,0.609,0.61,0.609,0.871c0,0.349-0.437,0.697-1.654,1.306v17.763H228.394z
			 M192.13,55.178c5.702-3.482,9.186-6.573,11.623-10.404c5.834,2.046,6.225,2.22,6.225,2.742c0,0.479-0.479,0.652-1.914,0.652
			h-0.175c-5.397,4.006-8.445,5.486-15.498,7.532L192.13,55.178z M205.538,23.92h-4.354v8.359h4.354V23.92z M205.538,33.194h-4.354
			v9.839h4.354V33.194z M214.376,23.92h-4.398v8.359h4.398V23.92z M214.376,33.194h-4.398v9.839h4.398V33.194z M214.724,45.252
			c6.139,1.175,10.145,2.308,12.146,3.483c1.437,0.827,2.046,1.785,2.046,3.308c0,1.872-0.914,3.57-1.915,3.57
			c-0.479,0-0.914-0.305-1.654-1.219c-2.918-3.483-6.226-6.139-10.841-8.707L214.724,45.252z M223.431,23.92h-4.614v8.359h4.614
			V23.92z M223.431,33.194h-4.614v9.839h4.614V33.194z"/>
		<path fill="#FFC800" d="M248.934,6.875h0.01h0.012c3.618-0.018,7.479,0.62,11.37,1.852c8.003,2.531,16.131,7.566,22.465,14.492
			c5.112,5.595,9.046,11.591,10.258,17.162l-2.149-0.049c-1.201-5.474-4.523-11.404-9.454-16.901
			c-6.163-6.867-14.065-11.854-21.845-14.361c-3.647-1.175-7.265-1.803-10.661-1.823c-3.751,0.022-7.227,0.768-10.167,2.324
			c-3.973,2.101-6.468,5.411-7.516,9.41h-0.01h-0.489c1.041-4.123,3.562-7.543,7.594-9.715
			C241.408,7.619,245.029,6.854,248.934,6.875"/>
		<path d="M246.699,49.82c0,2.956-1.7,5.881-4.963,5.881c-3.293,0-4.978-2.925-4.978-5.881c0-2.926,1.669-5.866,4.978-5.866
			C245.06,43.954,246.699,46.924,246.699,49.82 M238.474,49.82c0,3.385,1.287,5.376,3.263,5.376c2.007,0,3.247-2.067,3.247-5.376
			c0-3.354-1.271-5.361-3.247-5.361C239.715,44.458,238.474,46.511,238.474,49.82"/>
		<path d="M251.048,44.229l6.341,8.531v-6.907c0-0.645-0.46-1.119-1.042-1.119h-0.521v-0.505h3.6v0.505h-0.49
			c-0.582,0-1.057,0.43-1.057,1.119v9.557h-0.49l-6.831-9.403v7.796c0,0.582,0.383,1.117,1.057,1.117h0.489v0.49h-3.599v-0.49h0.49
			c0.598,0,1.058-0.443,1.058-1.117v-7.949c0-0.307-0.215-1.119-1.104-1.119h-0.444v-0.505H251.048z"/>
		<path d="M260.789,54.919h0.49c0.781,0,1.072-0.413,1.072-1.118v-7.948c0-0.796-0.368-1.119-1.072-1.119h-0.49v-0.505h4.609v0.505
			h-0.49c-0.734,0-1.072,0.353-1.072,1.119v7.948c0,0.751,0.507,1.118,1.072,1.118h0.568c0.995,0,2.052-0.505,2.832-1.256
			c0.506-0.489,0.735-0.965,0.903-1.316l0.445,0.214l-1.041,2.849h-7.827V54.919z"/>
		<path d="M270.973,54.919h0.705c0.873,0,1.057-0.551,1.057-1.118v-7.948c0-0.889-0.489-1.119-1.057-1.119h-0.705v-0.505h5.024
			v0.505h-0.689c-0.874,0-1.072,0.537-1.072,1.119v7.948c0,0.889,0.49,1.118,1.072,1.118h0.689v0.49h-5.024V54.919z"/>
		<path d="M279.826,44.229l6.342,8.531v-6.907c0-0.645-0.461-1.119-1.043-1.119h-0.521v-0.505h3.6v0.505h-0.489
			c-0.582,0-1.058,0.43-1.058,1.119v9.557h-0.489l-6.831-9.403v7.796c0,0.582,0.382,1.117,1.056,1.117h0.49v0.49h-3.6v-0.49h0.49
			c0.598,0,1.058-0.443,1.058-1.117v-7.949c0-0.307-0.215-1.119-1.104-1.119h-0.444v-0.505H279.826z"/>
		<path d="M298.113,55.41h-8.44V54.92h0.599c0.704,0,0.933-0.385,0.933-1.426v-7.657c0-0.675-0.396-1.104-1.025-1.104h-0.49v-0.505
			h8.179l0.996,2.543l-0.429,0.23c-0.261-0.445-0.49-0.813-0.995-1.257c-0.889-0.767-1.839-1.012-2.635-1.012h-1.135
			c-0.535,0-0.965,0.368-0.965,0.95v3.706h1.487c0.719,0,1.699-0.566,1.699-1.592v-0.321h0.505v4.333h-0.505v-0.428
			c0-0.751-0.658-1.502-1.471-1.502h-1.716v4.15c0,0.414,0.368,0.89,0.965,0.89h1.288c0.552,0,1.394-0.245,2.175-0.781
			c0.826-0.551,1.317-1.286,1.593-1.686l0.429,0.245L298.113,55.41z"/>
		<path d="M303.289,54.72c0,0.536-0.444,0.98-0.98,0.98c-0.551,0-0.979-0.444-0.979-0.98c0-0.551,0.443-0.979,0.979-0.979
			S303.289,54.169,303.289,54.72"/>
		<path d="M64.654,3.545h0.641c0.224-0.282,0.291-0.369,0.534-0.631l0.378,0.368l0.35,0.359c0.019,0.02,0.029,0.049,0.029,0.068
			c0,0.039-0.039,0.058-0.107,0.058h-1.825v1.864h0.544c0.156-0.185,0.204-0.242,0.369-0.417c0.213,0.165,0.272,0.213,0.475,0.368
			c0.088,0.078,0.117,0.117,0.117,0.155c0,0.059-0.039,0.088-0.272,0.234v0.717c0,1.223,0.009,1.573,0.049,2.203v0.01
			c0,0.069-0.01,0.087-0.068,0.107c-0.068,0.029-0.292,0.058-0.495,0.058c-0.088,0-0.116-0.019-0.116-0.088V8.456h-1.816v0.708
			c0,0.117-0.087,0.165-0.349,0.165c-0.068,0.01-0.126,0.01-0.136,0.01h-0.019c-0.107,0-0.156-0.039-0.156-0.116
			c0.03-0.796,0.039-1.146,0.039-2.261c0-1.107,0-1.272-0.039-1.747c0.311,0.155,0.408,0.213,0.709,0.417h0.553V3.768h-1.135
			c-0.272,0-0.437,0.02-0.583,0.059l-0.038-0.35c0.155,0.049,0.339,0.069,0.621,0.069h1.135v-1.66
			c-0.485,0.107-0.786,0.165-1.62,0.291L62.354,2.03c0.845-0.222,1.504-0.446,2.252-0.796c0.534-0.242,0.718-0.358,0.961-0.582
			c0.272,0.204,0.272,0.204,0.708,0.505c0.068,0.058,0.107,0.097,0.107,0.136s-0.048,0.078-0.107,0.078
			c-0.116,0-0.243-0.029-0.379-0.078c-0.562,0.242-0.776,0.32-1.242,0.446V3.545z M63.441,8.231h1.815V5.854h-1.815V8.231z
			 M68.721,6.331h1.009c0.291-0.311,0.291-0.311,0.534-0.573c0.369,0.281,0.475,0.379,0.805,0.679c0.02,0.03,0.03,0.049,0.03,0.068
			c0,0.029-0.03,0.049-0.088,0.049h-2.29v0.64c0,0.321,0.009,1.038,0.039,1.97c-0.01,0.155-0.097,0.185-0.582,0.185
			c-0.078,0-0.108-0.02-0.108-0.087c0.01-0.884,0.01-0.961,0.01-1.301V6.553h-1.29c-0.428,0.009-0.428,0.009-0.573,0.048
			l-0.038-0.349c0.193,0.058,0.348,0.078,0.611,0.078h1.29V4.749h-1.523c-0.272,0-0.534,0.029-0.728,0.077l-0.059-0.388
			c0.156,0.048,0.156,0.048,0.36,0.068c0.184,0.01,0.359,0.019,0.427,0.019h2.116c0.329-0.688,0.572-1.339,0.785-2.134
			c0.175,0.058,0.301,0.096,0.389,0.126c0.165,0.058,0.281,0.097,0.34,0.116c0.155,0.049,0.222,0.088,0.222,0.135
			c0,0.079-0.077,0.108-0.446,0.165c-0.311,0.544-0.689,1.107-1.087,1.592h0.99c0.233-0.271,0.301-0.358,0.543-0.621
			c0.34,0.301,0.446,0.399,0.786,0.728c0.02,0.019,0.03,0.049,0.03,0.068c0,0.029-0.039,0.049-0.087,0.049h-2.417V6.331z
			 M69.817,2.021c0.214-0.281,0.282-0.368,0.505-0.63c0.35,0.3,0.456,0.398,0.786,0.728c0.02,0.028,0.039,0.067,0.039,0.077
			c0,0.029-0.029,0.049-0.078,0.049h-4.221c-0.427,0-0.602,0.02-0.816,0.077l-0.067-0.397c0.252,0.068,0.495,0.096,0.883,0.096
			h1.232V1.507c0-0.35-0.01-0.495-0.067-0.845c0.814,0.049,1.077,0.097,1.077,0.194c0,0.068-0.049,0.097-0.369,0.204v0.96H69.817z
			 M66.917,2.371c0.679,0.66,0.922,1.01,0.922,1.339c0,0.292-0.185,0.65-0.34,0.65c-0.087,0-0.116-0.057-0.214-0.543
			c-0.097-0.534-0.203-0.815-0.484-1.368L66.917,2.371z"/>
		<path d="M81.895,6.641c0.193-0.272,0.262-0.359,0.476-0.64c0.338,0.271,0.436,0.368,0.766,0.698
			c0.028,0.029,0.038,0.058,0.038,0.078c0,0.048-0.057,0.087-0.116,0.087H74.79c-0.212,0-0.562,0.019-0.747,0.039l-0.057-0.359
			c0.301,0.078,0.494,0.097,0.843,0.097h0.418V2.816c0-0.446-0.009-0.641-0.039-1.106c0.369,0.204,0.476,0.272,0.825,0.504h1.126
			V1.342c0-0.243-0.01-0.398-0.048-0.718c0.94,0.127,1.067,0.155,1.067,0.262c0,0.087-0.049,0.117-0.408,0.252v1.077h1.32V1.438
			c0-0.058-0.01-0.242-0.019-0.524c0-0.058,0-0.146-0.01-0.262c0.863,0.136,1.018,0.175,1.018,0.271
			c0,0.088-0.019,0.098-0.387,0.214v1.077h1.319c0.165-0.204,0.214-0.261,0.379-0.456c0.291,0.214,0.379,0.282,0.641,0.505
			c0.067,0.068,0.087,0.107,0.087,0.146c0,0.067-0.107,0.145-0.408,0.281v3.95H81.895z M74.121,9.271
			c0.777-0.369,1.252-0.68,1.921-1.242c0.486-0.408,0.67-0.593,0.865-0.894c0.853,0.311,0.961,0.36,0.961,0.466
			c0,0.078-0.127,0.136-0.301,0.136h-0.204c-1.203,0.932-1.834,1.271-3.164,1.68L74.121,9.271z M77.159,2.438h-1.29v1.766h1.29
			V2.438z M77.159,4.428h-1.29v2.213h1.29V4.428z M79.09,2.438h-1.32v1.766h1.32V2.438z M79.09,4.428h-1.32v2.213h1.32V4.428z
			 M79.313,7.174c0.689,0.205,1.039,0.34,1.698,0.641c0.709,0.32,0.894,0.427,1,0.602c0.077,0.116,0.126,0.32,0.126,0.505
			c0,0.204-0.097,0.417-0.194,0.417c-0.068,0-0.174-0.078-0.301-0.213c-0.223-0.234-0.466-0.457-0.951-0.845
			c-0.64-0.505-0.883-0.67-1.455-0.981L79.313,7.174z M81.089,2.438h-1.397v1.766h1.397V2.438z M81.089,4.428h-1.397v2.213h1.397
			V4.428z"/>
		<path d="M86.565,7.681c0.64-0.399,1.229-0.879,1.898-1.519c1-0.95,1.74-1.829,2.45-2.928c-1.201,0.19-1.91,0.349-2.469,0.58
			c-0.16,0.059-0.231,0.08-0.32,0.08c-0.22,0-0.5-0.2-0.76-0.54c-0.18-0.231-0.289-0.45-0.289-0.56c0-0.04,0.01-0.07,0.039-0.12
			c0.32,0.37,0.62,0.529,1.03,0.529c0.409,0,2.089-0.209,3.148-0.389c-0.01-0.879-0.06-1.329-0.15-1.499
			c-0.11-0.21-0.41-0.39-0.76-0.46c0.08-0.1,0.121-0.11,0.33-0.11c0.31,0,0.81,0.121,1.11,0.28c0.22,0.11,0.29,0.19,0.29,0.36
			c0,0.069-0.011,0.12-0.061,0.22c-0.13,0.3-0.189,0.649-0.199,1.129c0.829-0.119,1.089-0.18,1.509-0.36
			c0.11-0.04,0.14-0.049,0.21-0.049c0.3,0,0.879,0.369,0.879,0.559c0,0.13-0.09,0.18-0.339,0.18c-0.061,0-0.17,0-0.351-0.01
			c-0.239-0.01-0.429-0.02-0.549-0.02c-0.32,0-0.629,0.02-1.37,0.089c0,0.131-0.009,0.25-0.009,0.311
			c0,0.869,0.059,1.999,0.16,3.227c0.04,0.491,0.059,0.861,0.059,1.081c0,0.539-0.259,1.059-0.519,1.059
			c-0.12,0-0.22-0.07-0.28-0.21c-0.08-0.21-0.16-0.32-0.36-0.48c-0.24-0.19-0.24-0.19-1.399-0.829l0.05-0.13
			c0.91,0.28,1.379,0.41,1.829,0.519c0.01-0.2,0.02-0.689,0.02-1.239c0-0.25,0-0.56-0.01-0.939c-0.02-0.65-0.03-1.1-0.03-1.33
			c0-0.089,0-0.24,0.01-0.429c-0.43,0.669-0.8,1.109-1.56,1.848c-1.058,1.02-2.278,1.879-3.158,2.229L86.565,7.681z"/>
		<path d="M98.685,1.895c0.96,0.239,1.539,0.469,1.928,0.749c0.231,0.16,0.34,0.38,0.34,0.679c0,0.33-0.109,0.56-0.279,0.56
			c-0.111,0-0.16-0.05-0.43-0.399c-0.49-0.65-0.849-0.98-1.629-1.47L98.685,1.895z M105.791,2.464
			c-0.5,0.939-1.109,1.729-2.099,2.688c-0.92,0.89-1.539,1.39-2.808,2.28c-0.47,0.329-0.52,0.369-0.59,0.459
			c-0.16,0.19-0.22,0.24-0.35,0.24c-0.41,0-1.17-0.96-1.17-1.47c0-0.059,0.011-0.099,0.05-0.199c0.2,0.3,0.221,0.319,0.361,0.439
			c0.149,0.14,0.29,0.21,0.399,0.21c0.17,0,0.48-0.129,0.97-0.419c1.119-0.65,1.508-0.93,2.388-1.649
			c1.23-1,1.829-1.609,2.689-2.669L105.791,2.464z"/>
		<path d="M110.898,8.79c0.989-0.758,1.619-1.379,2.278-2.228c0.81-1.029,1.409-2.119,1.679-3.048
			c-0.969,0.069-1.868,0.21-2.908,0.459c-0.629,0.15-0.829,0.21-1.039,0.311c-0.161,0.08-0.201,0.089-0.3,0.089
			c-0.35,0-0.92-0.719-0.92-1.159c0-0.07,0.011-0.1,0.06-0.17c0.23,0.4,0.499,0.579,0.87,0.579c0.389,0,2.079-0.21,3.378-0.429
			c0.54-0.09,0.62-0.11,0.82-0.23c0.069-0.04,0.119-0.06,0.159-0.06c0.09,0,0.24,0.1,0.47,0.299c0.28,0.26,0.4,0.42,0.4,0.55
			c0,0.08-0.051,0.16-0.15,0.25c-0.14,0.1-0.2,0.191-0.37,0.52c-1.079,2.039-2.689,3.658-4.337,4.387L110.898,8.79z M110.768,1.055
			c0.34,0.39,0.64,0.54,1.069,0.54c0.669,0,1.879-0.26,2.259-0.48c0.08-0.04,0.13-0.06,0.21-0.06c0.279,0,0.779,0.35,0.779,0.55
			c0,0.12-0.089,0.179-0.379,0.22c-1.19,0.179-2.009,0.259-2.549,0.259c-0.749,0-1.049-0.189-1.53-0.939L110.768,1.055z"/>
		<path d="M119.118,6.212c1.249-0.67,2.588-1.679,3.758-2.839c0.989-0.969,1.629-1.778,1.629-2.068c0-0.191-0.16-0.35-0.56-0.571
			c0.11-0.039,0.13-0.039,0.2-0.039c0.289,0,0.539,0.09,0.86,0.3c0.34,0.23,0.519,0.459,0.519,0.65c0,0.089-0.01,0.109-0.399,0.439
			c-0.101,0.08-0.101,0.08-0.81,0.76c-0.7,0.67-0.76,0.72-1.189,1.079c0.389,0.29,0.559,0.44,0.609,0.56
			c0.04,0.1,0.06,0.57,0.07,1.469c0.01,0.699,0.03,1.339,0.05,1.909c0,0.22,0.01,0.51,0.01,0.57c0,0.349-0.07,0.5-0.229,0.5
			c-0.231,0-0.68-0.55-0.68-0.84c0-0.07,0-0.07,0.059-0.26c0.09-0.25,0.18-1.489,0.18-2.459c0-0.489-0.019-0.789-0.059-0.949
			c-0.031-0.1-0.071-0.15-0.22-0.31c-0.7,0.56-1.419,1.07-1.919,1.37c-0.56,0.33-1.279,0.679-1.799,0.869L119.118,6.212z"/>
		<path d="M130.281,1.895c0.96,0.239,1.539,0.469,1.928,0.749c0.231,0.16,0.34,0.38,0.34,0.679c0,0.33-0.109,0.56-0.279,0.56
			c-0.111,0-0.16-0.05-0.43-0.399c-0.49-0.65-0.849-0.98-1.629-1.47L130.281,1.895z M137.387,2.464
			c-0.5,0.939-1.109,1.729-2.099,2.688c-0.92,0.89-1.539,1.39-2.808,2.28c-0.47,0.329-0.52,0.369-0.59,0.459
			c-0.16,0.19-0.22,0.24-0.35,0.24c-0.41,0-1.17-0.96-1.17-1.47c0-0.059,0.011-0.099,0.05-0.199c0.2,0.3,0.221,0.319,0.361,0.439
			c0.149,0.14,0.29,0.21,0.399,0.21c0.17,0,0.48-0.129,0.97-0.419c1.119-0.65,1.508-0.93,2.388-1.649
			c1.23-1,1.829-1.609,2.689-2.669L137.387,2.464z"/>
	</g>
</g>
</svg>
