<?xml version="1.0" encoding="utf-8"?>
<!-- Generator: Adobe Illustrator 23.0.3, SVG Export Plug-In . SVG Version: 6.00 Build 0)  -->
<svg version="1.1" id="Capa_1" xmlns="http://www.w3.org/2000/svg" xmlns:xlink="http://www.w3.org/1999/xlink" x="0px" y="0px"
	 viewBox="0 0 11.7 11.7" style="enable-background:new 0 0 11.7 11.7;" xml:space="preserve">
<style type="text/css">
	.st0{fill:#AAAAAA;}
</style>
<g>
	<path class="st0" d="M11.6,5.5C11.4,2.5,9.1,0.2,6.2,0v0H5.8H5.4v0C2.5,0.2,0.2,2.5,0,5.5h0v0.4v0.4h0c0.2,2.9,2.5,5.2,5.4,5.4v0
		h0.4h0.4v0c2.9-0.2,5.2-2.5,5.4-5.4h0V5.8L11.6,5.5L11.6,5.5z M3.6,1.3C3.3,1.8,3,2.4,2.7,3.1H1.6C2.1,2.3,2.8,1.7,3.6,1.3z
		 M1.2,3.9h1.4c-0.1,0.5-0.2,1-0.2,1.6H0.8C0.8,4.9,1,4.4,1.2,3.9z M0.8,6.2h1.5c0,0.5,0.1,1.1,0.2,1.6H1.2C1,7.3,0.8,6.8,0.8,6.2z
		 M1.6,8.6h1.2C3,9.3,3.3,9.9,3.6,10.4C2.8,10,2.1,9.4,1.6,8.6z M5.4,10.8C4.6,10.6,4,9.8,3.5,8.6h1.9V10.8z M5.4,7.8H3.3
		c-0.1-0.5-0.2-1-0.2-1.6h2.3V7.8z M5.4,5.5H3.1c0-0.5,0.1-1.1,0.2-1.6h2.1V5.5z M5.4,3.1H3.5C4,1.9,4.6,1.1,5.4,0.8V3.1z M10.1,3.1
		H8.9C8.7,2.4,8.4,1.8,8,1.3C8.9,1.7,9.6,2.3,10.1,3.1z M6.2,0.8C7,1.1,7.7,1.9,8.1,3.1H6.2V0.8z M6.2,3.9h2.1
		c0.1,0.5,0.2,1,0.2,1.6H6.2V3.9z M6.2,6.2h2.3c0,0.5-0.1,1.1-0.2,1.6H6.2V6.2z M6.2,10.8V8.6h1.9C7.7,9.8,7,10.6,6.2,10.8z M8,10.4
		c0.4-0.5,0.7-1.1,0.9-1.8h1.2C9.6,9.4,8.9,10,8,10.4z M10.5,7.8H9.1c0.1-0.5,0.2-1,0.2-1.6h1.5C10.8,6.8,10.7,7.3,10.5,7.8z
		 M9.3,5.5c0-0.5-0.1-1.1-0.2-1.6h1.4c0.2,0.5,0.3,1,0.4,1.6H9.3z"/>
</g>
</svg>
